<?xml version="1.0" encoding="utf-8"?>
<!-- Generator: Adobe Illustrator 22.0.1, SVG Export Plug-In . SVG Version: 6.00 Build 0)  -->
<svg version="1.1" id="Capa_1" xmlns="http://www.w3.org/2000/svg" xmlns:xlink="http://www.w3.org/1999/xlink" x="0px" y="0px"
	 viewBox="0 0 595.3 841.9" style="enable-background:new 0 0 595.3 841.9;" xml:space="preserve">
<style type="text/css">
	.st0{fill:#FFFFFF;}
	.st1{fill:#B8B8B8;}
</style>
<g>
	<path class="st0" d="M1.1,133.4c198.1,0,396.3,0,594.4,0c0,192.5,0,385,0,577.6c-198.1,0-396.3,0-594.4,0
		C1.1,518.4,1.1,325.9,1.1,133.4z M357.2,609.9c9.6,11.3,21.1,20.1,36.3,22.8c23.5,4.2,45.4-10,53.3-34.5c1.5-4.6,2.4-9.6,2.7-14.4
		c0.3-4.6-0.5-9.4-0.9-14.4c5-0.3,10.1-0.5,15.1-1.1c15.4-1.8,28.3-8.9,39.4-19.6c11.3-10.8,20.3-23.3,25.7-38.1
		c9.9-26.7,2-51.7-22-67c-30.3-19.4-63.5-28.7-99.7-25c-1.4,0.1-2.8,0.3-4.2,0.3c-0.3,0-0.6-0.2-0.8-0.3c2.2-7.4,5.2-14.6,6.6-22.1
		c5.1-26.9-0.3-51.7-17.2-73.5c-2.4-3.1-2.3-5.1-0.4-8.3c13.7-21.8,29.3-41.7,52.2-54.7c23.4-13.3,51.3-11,72,5.8
		c22.1,17.9,20,56.2-3.9,71.7c-10.6,6.9-26.4,4.4-34.4-5.4c-5.4-6.7-4.8-16.2,1.7-23.8c1,1.5,1.8,2.9,2.8,4.2
		c3.8,5.1,10.9,6.7,16.5,3.7c5.6-3,8.2-9.6,6.1-15.8c-2.1-6.1-8.2-9.7-14.6-8.5c-12.7,2.3-23.6,13.8-24.9,26.1
		c-1.4,13.4,5.6,24.3,18.8,29.6c19.6,7.8,38.3-0.3,49.3-21.2c15.7-29.8,4-63-27.2-76.8c-30.6-13.6-57.9-6.5-82.9,13.8
		c-15.3,12.4-27.3,27.7-37.7,44.3c-0.9,1.5-1.9,2.9-3.1,4.7c-16.1-14.6-34.8-22.6-56.3-24.4c3.7-8.7,7.4-16.8,10.5-25.1
		c7.8-20.8,11.9-42.2,8.4-64.6c-5-32.2-35.7-59.4-66.3-58.4c-29.3,0.9-55.3,29.8-51.8,57.8c2.9,23.8,32.3,38.4,51.6,25.6
		c11.8-7.8,13.9-21.6,11.7-33.2c-1.1-6-7.7-9.7-13.8-8.9c-6.2,0.8-11,5.8-11.4,11.9c-0.5,6.4,3.7,12.3,9.9,13.7
		c1.5,0.4,3.1,0.5,4.6,0.7c-2.2,7.7-10.7,12.7-19.4,11.7c-17.9-2-28.4-19-22.9-37c10.3-33.8,48-43.9,76.5-20.6
		c19.2,15.7,25.5,36.3,23.6,60.1c-1.8,22.4-9.7,43-20,62.8c-0.8,1.6-2.9,3.3-4.6,3.4c-27.3,2.9-49.3,15.1-65.9,37.1
		c-0.3,0.4-0.8,0.6-1.4,1c-3.2-6.5-6.1-13-9.6-19.3c-10.9-19.4-25.8-35.4-43.5-48.8c-29.6-22.4-60.4-19-84,9.9
		c-11.9,14.5-19.7,31.1-22.1,49.9c-1.5,11.6,1.1,22.7,5.1,33.5c0.6,1.6,1.3,3.2,2.2,5.5c-1.8,0.5-3.4,0.8-5.1,1.3
		c-27.5,7.2-45.2,36.1-37.5,62c5,16.8,17.4,26.8,32.9,33.3c17.8,7.6,36.7,10.5,55.9,12c1.4,0.1,2.8,0.2,4.2,0.4
		c0.3,0,0.6,0.3,1.1,0.6c-4.9,6.1-10.3,11.7-14.7,18.2c-30.2,44.7-26.6,101,7,140.9c8.7,10.3,11.5,22.8,13.5,35.4
		c1.3,8.5-0.1,17.4,0.1,26.1c0,1.9,1.5,3.8,2.3,5.7c1.9-0.8,5-1.2,5.5-2.6c3.1-7.7,9.9-11.2,16.3-15.1c4-2.4,8.6-4.1,12.8-6.2
		c7.4-3.7,14.9-4.3,23.3-3.2c55.2,7.5,107.7-25.7,125.3-78.8c0.4-1.1,0.9-2.1,1.3-3C344.1,592.7,350.2,601.7,357.2,609.9z"/>
	<path class="st1" d="M336.1,586.9c-17.6,53.1-70.1,86.3-125.3,78.8c-8.4-1.1-15.9-0.5-23.3,3.2c-4.2,2.1-8.8,3.7-12.8,6.2
		c-6.4,3.9-13.1,7.4-16.3,15.1c-0.6,1.4-3.6,1.7-5.5,2.6c-0.8-1.9-2.3-3.8-2.3-5.7c-0.2-8.7,1.3-17.6-0.1-26.1
		c-2-12.6-4.8-25.1-13.5-35.4c-33.6-39.9-37.3-96.2-7-140.9c4.3-6.4,9.7-12.1,14.7-18.2c-0.5-0.3-0.8-0.6-1.1-0.6
		c-1.4-0.2-2.8-0.3-4.2-0.4c-19.1-1.6-38-4.4-55.9-12C68,446.9,55.6,437,50.6,420.2c-7.7-25.9,10-54.9,37.5-62
		c1.6-0.4,3.2-0.8,5.1-1.3c-0.9-2.3-1.6-3.9-2.2-5.5c-4-10.8-6.6-21.9-5.1-33.5C88.3,299,96.1,282.5,108,268
		c23.6-28.8,54.4-32.3,84-9.9c17.7,13.4,32.6,29.4,43.5,48.8c3.5,6.2,6.4,12.8,9.6,19.3c0.5-0.4,1.1-0.6,1.4-1
		c16.6-22,38.6-34.2,65.9-37.1c1.7-0.2,3.7-1.9,4.6-3.4c10.3-19.8,18.2-40.4,20-62.8c2-23.8-4.4-44.4-23.6-60.1
		c-28.5-23.3-66.1-13.2-76.5,20.6c-5.5,18,5,35,22.9,37c8.8,1,17.2-4.1,19.4-11.7c-1.6-0.2-3.1-0.3-4.6-0.7
		c-6.2-1.5-10.4-7.3-9.9-13.7c0.4-6.1,5.3-11.2,11.4-11.9c6.1-0.8,12.6,3,13.8,8.9c2.2,11.6,0.2,25.4-11.7,33.2
		c-19.3,12.7-48.6-1.8-51.6-25.6c-3.5-28,22.5-56.9,51.8-57.8c30.6-0.9,61.3,26.2,66.3,58.4c3.5,22.4-0.7,43.7-8.4,64.6
		c-3.1,8.3-6.8,16.4-10.5,25.1c21.5,1.8,40.2,9.9,56.3,24.4c1.2-1.8,2.1-3.2,3.1-4.7c10.4-16.6,22.4-31.9,37.7-44.3
		c25-20.2,52.3-27.4,82.9-13.8c31.2,13.9,42.9,47,27.2,76.8c-11,20.9-29.8,29-49.3,21.2c-13.3-5.3-20.2-16.2-18.8-29.6
		c1.3-12.3,12.2-23.8,24.9-26.1c6.4-1.1,12.5,2.5,14.6,8.5c2.1,6.2-0.5,12.8-6.1,15.8c-5.6,3-12.7,1.5-16.5-3.7
		c-1-1.3-1.8-2.8-2.8-4.2c-6.5,7.6-7.1,17.2-1.7,23.8c8,9.8,23.8,12.3,34.4,5.4c23.9-15.5,26-53.8,3.9-71.7
		c-20.8-16.8-48.7-19.1-72-5.8c-22.8,13-38.5,32.9-52.2,54.7c-1.9,3.1-2,5.2,0.4,8.3c16.8,21.9,22.3,46.6,17.2,73.5
		c-1.4,7.5-4.3,14.7-6.6,22.1c0.2,0.1,0.5,0.3,0.8,0.3c1.4-0.1,2.8-0.2,4.2-0.3c36.3-3.7,69.4,5.6,99.7,25
		c24.1,15.4,31.9,40.3,22,67c-5.5,14.8-14.4,27.2-25.7,38.1c-11.1,10.6-23.9,17.8-39.4,19.6c-5,0.6-10,0.7-15.1,1.1
		c0.4,5,1.2,9.7,0.9,14.4c-0.3,4.9-1.2,9.8-2.7,14.4c-7.9,24.5-29.9,38.6-53.3,34.5c-15.1-2.7-26.6-11.6-36.3-22.8
		c-7-8.2-13.2-17.2-19.8-26C337.1,584.7,336.5,585.8,336.1,586.9z M332.1,491c30.7,13,61.1,26.9,88.8,45.7
		c8.6,5.8,16.6,12.3,22.4,21.2c0.9,1.3,3.5,2,5.3,2.1c24.5,1.7,43.1-9.1,57.6-27.9c4.5-5.8,8.5-12.1,11.7-18.7
		c12.8-26.8,5.4-50.2-20.4-65.1c-57-32.7-112.1-27.3-165.5,8.7c-8,5.4-15.2,11.7-23.4,18.1C316.3,482.2,323.5,487.4,332.1,491z
		 M244.6,403.1c3.3-30.3-0.1-59.6-14.4-87c-12.2-23.4-29.5-42.2-51.8-56.3c-18.5-11.7-39.1-9.6-55.3,5.2
		c-14.5,13.3-23.8,29.9-27.7,49.1c-2.9,14.2,0.4,27.5,6.8,40.2c0.6,1.2,2.2,2.4,3.5,2.6c13.2,2.3,24.2,9.3,34.9,16.7
		c26.1,18,49.2,39.5,72.3,61.2c5.9,5.5,13.2,9.4,20.5,14.4C239.5,433.5,242.9,418.5,244.6,403.1z M234.2,562.5
		c20,9.4,39.7,19.5,61.5,24.2c8,1.8,16.2,2.8,24.3,4.2c3.3,0.6,5.4-0.6,6.2-3.9c0-0.2,0.1-0.3,0.2-0.5c4.1-9.1,4.5-17.5-1.2-26.7
		c-5.1-8.3-8-17.9-12.2-26.8c-1-2-3.3-4.2-5.3-4.7c-43.6-10-82.3-29.7-116.2-58.8c-2-1.7-5.3-2.5-8-2.6c-6.8-0.3-13.7-0.1-20.5,0.2
		c-2.3,0.1-4.9,0.8-6.6,2.2c-3.8,3.1-7.2,6.7-10.6,10.2c-2.4,2.5-4.5,5.4-6.8,8.3C164.6,521.3,196.9,544.9,234.2,562.5z
		 M187.3,423.4c-18.9-17.3-38.2-34.2-60.2-47.7c-10.4-6.4-21.1-11.8-34.1-9.5c-27.8,5-44,37.3-29.9,60.1c5.3,8.5,13.1,14.1,22,18.1
		c18,8.2,37.3,11.7,56.8,12.2c24.9,0.6,49.8-0.6,74.7-1c0.8,0,1.7-0.3,4-0.8C208.9,443.8,198.3,433.4,187.3,423.4z M322.3,530.5
		c9.5,23.9,20.3,47.1,36.5,67.3c5.3,6.6,11.4,13,18.2,18c23.7,17.4,52.4,7.6,61.4-20.4c5.4-16.8,0.9-32.1-12.6-43.5
		c-15.5-13.1-33.3-22.8-51.5-31.6c-19.6-9.5-39.6-18.1-59.4-27c-1.9-0.8-3.9-1.4-5.8-2.1c-0.4,0.3-0.8,0.6-1.2,0.9
		C312.8,504.9,317.3,517.8,322.3,530.5z M120.5,563.8c-0.3,20.9,15.5,54.1,42,73.2c33.8,24.4,76.7,25.1,105.1,11.4
		C213.5,628.3,163.2,602.7,120.5,563.8z M256.3,376.6c-1.6,14.6-3.2,28.8-4.7,43c-0.1,1.1,0.9,2.6,1.8,3.3
		c17.7,14,36.1,26.8,58,33.3c2.1,0.6,5.2,0.1,7.1-1.1c10.8-6.4,21.5-13.2,32.2-19.9c0.7-0.4,1.4-0.9,2.8-1.9
		C317.4,419.6,286.1,398.8,256.3,376.6z"/>
	<path class="st0" d="M308.7,475.2c7.6,7,14.8,12.2,23.4,15.8c30.7,13,61.1,26.9,88.8,45.7c8.6,5.8,16.6,12.3,22.4,21.2
		c0.9,1.3,3.5,2,5.3,2.1c24.5,1.7,43.1-9.1,57.6-27.9c4.5-5.8,8.5-12.1,11.7-18.7c12.8-26.8,5.4-50.2-20.4-65.1
		c-57-32.7-112.1-27.3-165.5,8.7C324.1,462.5,316.9,468.8,308.7,475.2z"/>
	<path class="st0" d="M233.3,449.3c6.1-15.8,9.6-30.8,11.3-46.2c3.3-30.3-0.1-59.6-14.4-87c-12.2-23.4-29.5-42.2-51.8-56.3
		c-18.5-11.7-39.1-9.6-55.3,5.2c-14.5,13.3-23.8,29.9-27.7,49.1c-2.9,14.2,0.4,27.5,6.8,40.2c0.6,1.2,2.2,2.4,3.5,2.6
		c13.2,2.3,24.2,9.3,34.9,16.7c26.1,18,49.2,39.5,72.3,61.2C218.7,440.4,226.1,444.3,233.3,449.3z"/>
	<path class="st0" d="M139,487.8c25.6,33.4,57.9,57.1,95.2,74.6c20,9.4,39.7,19.5,61.5,24.2c8,1.8,16.2,2.8,24.3,4.2
		c3.3,0.6,5.4-0.6,6.2-3.9c0-0.2,0.1-0.3,0.2-0.5c4.1-9.1,4.5-17.5-1.2-26.7c-5.1-8.3-8-17.9-12.2-26.8c-1-2-3.3-4.2-5.3-4.7
		c-43.6-10-82.3-29.7-116.2-58.8c-2-1.7-5.3-2.5-8-2.6c-6.8-0.3-13.7-0.1-20.5,0.2c-2.3,0.1-4.9,0.8-6.6,2.2
		c-3.8,3.1-7.2,6.7-10.6,10.2C143.4,482.1,141.3,485,139,487.8z"/>
	<path class="st0" d="M220.6,454.8c-11.6-11-22.3-21.4-33.3-31.5c-18.9-17.3-38.2-34.2-60.2-47.7c-10.4-6.4-21.1-11.8-34.1-9.5
		c-27.8,5-44,37.3-29.9,60.1c5.3,8.5,13.1,14.1,22,18.1c18,8.2,37.3,11.7,56.8,12.2c24.9,0.6,49.8-0.6,74.7-1
		C217.4,455.6,218.3,455.3,220.6,454.8z"/>
	<path class="st0" d="M308.1,492.1c4.7,12.8,9.2,25.7,14.2,38.4c9.5,23.9,20.3,47.1,36.5,67.3c5.3,6.6,11.4,13,18.2,18
		c23.7,17.4,52.4,7.6,61.4-20.4c5.4-16.8,0.9-32.1-12.6-43.5c-15.5-13.1-33.3-22.8-51.5-31.6c-19.6-9.5-39.6-18.1-59.4-27
		c-1.9-0.8-3.9-1.4-5.8-2.1C308.9,491.5,308.5,491.8,308.1,492.1z"/>
	<path class="st0" d="M267.7,648.4c-54.2-20.1-104.4-45.7-147.2-84.6c-0.3,20.9,15.5,54.1,42,73.2
		C196.4,661.5,239.2,662.1,267.7,648.4z"/>
	<path class="st0" d="M353.5,433.4c-36.2-13.8-67.4-34.6-97.3-56.8c-1.6,14.6-3.2,28.8-4.7,43c-0.1,1.1,0.9,2.6,1.8,3.3
		c17.7,14,36.1,26.8,58,33.3c2.1,0.6,5.2,0.1,7.1-1.1c10.8-6.4,21.5-13.2,32.2-19.9C351.4,434.8,352.1,434.3,353.5,433.4z"/>
</g>
</svg>
